<?xml version="1.0" encoding="utf-8"?>
<!-- Generator: Adobe Illustrator 15.0.0, SVG Export Plug-In . SVG Version: 6.00 Build 0)  -->
<!DOCTYPE svg PUBLIC "-//W3C//DTD SVG 1.1//EN" "http://www.w3.org/Graphics/SVG/1.1/DTD/svg11.dtd">
<svg version="1.1" id="Calque_7" xmlns="http://www.w3.org/2000/svg" xmlns:xlink="http://www.w3.org/1999/xlink" x="0px" y="0px"
	 width="610px" height="430px" viewBox="0 0 610 430" enable-background="new 0 0 610 430" xml:space="preserve">
<g id="Calque_6">
	<g id="Calque_2">
		<ellipse fill="none" stroke="#000000" stroke-width="2" stroke-miterlimit="10" cx="305" cy="220.74" rx="302.918" ry="81.541"/>
		
			<ellipse transform="matrix(0.9009 -0.434 0.434 0.9009 -65.6388 154.2794)" fill="none" stroke="#000000" stroke-width="2" stroke-miterlimit="10" cx="305.075" cy="220.898" rx="302.918" ry="73.394"/>
		
			<ellipse transform="matrix(-0.9009 -0.434 0.434 -0.9009 484.0615 552.3055)" fill="none" stroke="#000000" stroke-width="2" stroke-miterlimit="10" cx="305.075" cy="220.898" rx="302.918" ry="73.394"/>
	</g>
	<g id="Calque_4">
		<path d="M308.203,1.846c-13.388,0-25.028,3.061-35.508,9.798c-44.819,30.015-65.774,91.269-65.774,184.372
			c0,74.118,27.358,182.538,98.953,182.538c15.717,0,28.522-6.127,40.163-15.314c27.358-20.828,57.043-73.504,57.043-179.471
			C403.08,112.715,378.635,1.846,308.203,1.846z M303.458,372.513c0,0-73.461,6.041-73.461-182.351
			c0-121.368,32.89-182.35,73.461-182.35c40.572,0,73.464,46.871,73.464,182.35C376.921,290.87,349.326,383.698,303.458,372.513z"/>
	</g>
</g>
<g id="Calque_8">
	<path d="M89.665,104.166c11.724,2.783,14.654,5.899,15.453,13.689c0.268,6.118,0.268,11.567,0.268,68.586
		c0,42.276-0.801,60.296-1.333,69.477c-0.533,8.9-3.196,11.892-15.453,14.396c-3.257,0.732-5.295,2.486-5.759,3.486h67.395
		c-0.462-1-2.059-2.633-5.433-3.514c-11.989-3.334-14.72-7.473-15.72-18.041v-65.914c59,87.041,97.408,108.765,95.885,106.753
		c-36.349-48.01-60.583-109.675-60.317-109.675c15.986-6.117,43.813-17.381,43.813-41.023c0-8.426,1.445-23.427-12.047-34.754
		c0,0-6.475-6.832-20.569-6.832H83.275C83.324,101.8,84.943,103.071,89.665,104.166z M129.082,111.48
		c21-17.024,56.933,3.522,54.072,33.41c-1.933,20.209-34.072,38.52-54.072,26.272V111.48z"/>
	<path d="M259.086,110.8h34.995v133.659c-2,14.74-2.216,22.771-16.732,26.107c-2.522,0.238-4.801,2.234-5.297,3.234h62.912
		c-0.291-1-1.799-2.771-4.414-3.514c-14.516-4.172-16.469-6.916-16.469-30.556V110.8h33.758c0,0,17.39,21.152,20.118,23.09
		l-4.61-33.09H244.133l-4.33,31.173c0.164,0.171,0.347-0.09,0.561-0.09C241.626,131.883,259.086,110.8,259.086,110.8z"/>
	<path d="M406.586,100.8c0.347,1,25.495,12.544,25.495,12.544v148.788c0,0-7.543,5.928-21.203,8.713
		c-3.006,0.889-4.39,1.955-4.919,2.955h75.069c-0.865-1-5.051-3.938-8.164-4.436c-14.465-2.783-16.783-7.232-16.783-7.232V178.8
		h45.812l10.188,21.804v-60.411L501.893,169.8h-45.812v-56.456c-1-6.003,40.232-4.475,40.232-4.475
		c14.199,1.389,36.111,5.608,39.155,26.917l4.46-34.986H406.586z"/>
</g>
<g>
	<path d="M21.564,414.222c0,3.551-1.727,5.549-3.477,6.879c-1.431,1.086-3.379,1.652-4.636,1.652c-4.81,0-8.755-3.551-8.755-8.531
		c0-3.477,1.899-5.646,3.354-6.684c1.085-0.789,2.836-1.527,4.933-1.527C17.816,406.011,21.564,409.61,21.564,414.222z
		 M8.963,408.132c-0.69,0.715-1.775,2.316-1.775,5.473c0,2.293,0.888,4.734,2.367,6.387c1.109,1.234,2.515,2.072,4.192,2.072
		c1.307,0,2.515-0.691,3.354-1.529c1.307-1.283,1.923-3.674,1.923-5.77c0-3.453-2.244-8.139-6.757-8.139
		C10.936,406.626,9.678,407.415,8.963,408.132z"/>
	<path d="M32.066,406.454c0.74,0,1.652-0.148,1.825-0.148c0.074,0,0.247,0.172,0.247,0.32c0,0.715,0.073,1.604,0.073,2.342
		c0,0.322-0.147,0.543-0.246,0.543c-0.148,0-0.222-0.172-0.321-0.566c-0.296-1.332-0.838-1.578-2.145-1.701
		c-0.912-0.074-2.54-0.025-3.551-0.025c-0.173,0-0.297,0.271-0.321,0.469c-0.073,1.678-0.073,3.748-0.073,5.844
		c0,0.049,0.049,0.223,0.271,0.223c0.715,0,1.75-0.049,2.909-0.074c1.134-0.025,1.455-0.344,1.701-1.258
		c0.124-0.346,0.247-0.492,0.37-0.492c0.148,0,0.247,0.172,0.247,0.492c0,0.346-0.124,1.086-0.099,1.678
		c0,0.74,0.073,1.207,0.073,1.725c0,0.469-0.099,0.668-0.271,0.668c-0.148,0-0.271-0.223-0.346-0.494
		c-0.197-0.715-0.346-1.158-0.962-1.232c-0.764-0.074-1.677-0.125-3.674-0.125c-0.099,0-0.222,0.125-0.222,0.371
		c0,2.467,0,4.266,0.049,5.055c0.099,1.283,0.197,1.43,1.529,1.678c0.32,0.049,0.566,0.172,0.566,0.32s-0.271,0.271-0.542,0.271
		c-0.616,0-1.652-0.074-2.663-0.074c-0.938,0-2.22,0.074-2.762,0.074c-0.37,0-0.567-0.1-0.567-0.223c0-0.148,0.148-0.223,0.493-0.32
		c1.258-0.248,1.405-0.543,1.554-1.578c0.099-0.938,0.147-4.316,0.147-6.955c0-1.725-0.049-3.5-0.074-4.535
		c-0.049-1.283-0.196-1.652-1.504-1.801c-0.271-0.051-0.542-0.123-0.542-0.297c0-0.172,0.296-0.246,0.715-0.246
		c0.74,0,1.677,0.074,2.564,0.074H32.066z"/>
	<path d="M44.518,406.454c0.739,0,1.652-0.148,1.824-0.148c0.074,0,0.247,0.172,0.247,0.32c0,0.715,0.074,1.604,0.074,2.342
		c0,0.322-0.148,0.543-0.247,0.543c-0.148,0-0.222-0.172-0.32-0.566c-0.296-1.332-0.839-1.578-2.146-1.701
		c-0.912-0.074-2.54-0.025-3.551-0.025c-0.173,0-0.296,0.271-0.321,0.469c-0.073,1.678-0.073,3.748-0.073,5.844
		c0,0.049,0.049,0.223,0.271,0.223c0.716,0,1.752-0.049,2.91-0.074c1.135-0.025,1.455-0.344,1.702-1.258
		c0.122-0.346,0.246-0.492,0.369-0.492c0.148,0,0.247,0.172,0.247,0.492c0,0.346-0.123,1.086-0.099,1.678
		c0,0.74,0.073,1.207,0.073,1.725c0,0.469-0.098,0.668-0.271,0.668c-0.148,0-0.271-0.223-0.346-0.494
		c-0.197-0.715-0.345-1.158-0.962-1.232c-0.764-0.074-1.677-0.125-3.674-0.125c-0.099,0-0.222,0.125-0.222,0.371
		c0,2.467,0,4.266,0.049,5.055c0.099,1.283,0.197,1.43,1.529,1.678c0.32,0.049,0.566,0.172,0.566,0.32s-0.271,0.271-0.542,0.271
		c-0.616,0-1.652-0.074-2.663-0.074c-0.938,0-2.22,0.074-2.762,0.074c-0.37,0-0.567-0.1-0.567-0.223c0-0.148,0.148-0.223,0.493-0.32
		c1.258-0.248,1.405-0.543,1.554-1.578c0.099-0.938,0.148-4.316,0.148-6.955c0-1.725-0.05-3.5-0.074-4.535
		c-0.05-1.283-0.197-1.652-1.504-1.801c-0.271-0.051-0.543-0.123-0.543-0.297c0-0.172,0.296-0.246,0.715-0.246
		c0.74,0,1.677,0.074,2.564,0.074H44.518z"/>
	<path d="M50.213,409.339c-0.05-1.652,0-2.096-1.332-2.367c-0.37-0.049-0.566-0.197-0.566-0.32c0-0.174,0.271-0.248,0.715-0.248
		c0.616,0,1.528,0.051,2.146,0.051c1.011,0,1.75-0.051,2.736-0.051c0.271,0,0.518,0.074,0.518,0.223s-0.147,0.246-0.493,0.32
		c-1.06,0.223-1.208,0.346-1.331,1.48c-0.123,1.084-0.197,2.367-0.197,5.301c0,3.428,0.123,5.303,0.197,6.363
		c0.074,1.135,0.469,1.281,1.554,1.627c0.419,0.123,0.469,0.246,0.469,0.395c0,0.123-0.173,0.223-0.519,0.223
		c-0.566,0-1.726-0.074-2.885-0.074c-0.74,0-1.751,0.074-2.516,0.074c-0.345,0-0.518-0.1-0.518-0.248
		c0-0.197,0.222-0.295,0.69-0.418c0.986-0.248,1.209-0.469,1.258-1.48c0.074-0.912,0.123-2.49,0.123-6.213
		C50.262,412.249,50.262,410.202,50.213,409.339z"/>
	<path d="M69.224,406.478c0.641,0.174,0.962,0.174,1.232,0.174c0.123,0.025,0.271,0.271,0.271,0.369
		c-0.049,0.838,0.074,2.195,0.123,2.564c0.025,0.443-0.099,0.617-0.246,0.617c-0.123,0-0.247-0.197-0.346-0.518
		c-0.32-1.061-0.765-1.529-1.454-2.047c-0.74-0.543-2.022-1.061-3.552-1.061c-4.019,0-6.214,2.91-6.214,6.904
		c0,1.85,0.346,3.205,0.863,4.291c1.455,3.057,4.118,4.291,6.14,4.291c1.036,0,1.924-0.148,2.688-0.568
		c0.715-0.418,1.307-1.035,1.701-1.873c0.271-0.543,0.37-0.789,0.567-0.789c0.147,0,0.197,0.346,0.173,0.518
		c-0.025,0.346-0.124,1.406-0.148,1.75c-0.024,0.248-0.369,0.568-0.666,0.691c-0.961,0.494-2.466,0.961-4.833,0.961
		c-2.663,0-5.475-0.912-7.2-2.91c-1.258-1.43-1.948-3.426-1.948-5.424c0-2.664,1.109-5.055,3.329-6.584
		c1.997-1.455,4.217-1.85,6.042-1.85C67.326,405.985,68.534,406.306,69.224,406.478z"/>
	<path d="M73.612,406.38c0.615,0,1.775,0.074,2.762,0.074c0.296,0,2.86,0,3.156,0c2.663,0,3.452-0.174,4.241-0.297
		c0.099,0,0.271,0.223,0.296,0.371c0,0.123,0.222,1.898,0.222,2.539c0,0.223-0.173,0.443-0.296,0.443
		c-0.074,0-0.222-0.146-0.444-0.838c-0.271-0.961-0.739-1.307-1.849-1.406c-0.567-0.049-1.751-0.072-3.872-0.072
		c-0.147,0-0.246,0.195-0.296,0.418c-0.073,0.445-0.099,3.922-0.099,5.623c0,0.197,0.099,0.369,0.197,0.369h1.431
		c2.17,0,2.589-0.197,2.935-1.455c0.073-0.246,0.222-0.518,0.345-0.518c0.222,0,0.271,0.223,0.247,0.568
		c-0.025,0.566-0.05,1.207-0.05,1.824c0,0.689,0.05,1.602,0.099,2.145c0,0.346-0.123,0.494-0.246,0.494
		c-0.148,0-0.271-0.172-0.395-0.568c-0.223-0.863-0.444-1.404-1.381-1.479c-0.493-0.049-1.825-0.123-2.787-0.123
		c-0.32,0-0.395,0.221-0.395,0.369v4.586c0,0.84,0.099,1.135,0.297,1.357c0.566,0.518,0.542,0.615,2.465,0.615
		c3.23,0,3.601-0.049,4.267-0.961c0.172-0.246,0.468-0.617,0.739-1.209c0.222-0.418,0.37-0.541,0.518-0.541
		c0.124,0,0.197,0.295,0.197,0.443c0,0.246-0.715,2.564-0.789,2.785c-0.098,0.297-0.345,0.494-0.591,0.494
		c-0.839-0.074-4.144-0.172-8.532-0.172c-1.159,0-2.392,0.197-3.009,0.197c-0.37,0-0.567-0.1-0.567-0.271
		c0-0.123,0.148-0.223,0.593-0.32c1.43-0.297,1.898-0.568,2.071-2.121c0.099-1.012,0.123-2.441,0.123-5.869
		c0-3.379-0.024-4.389-0.074-5.227c-0.074-1.357-0.592-1.504-1.628-1.727c-0.443-0.1-0.566-0.197-0.566-0.32
		C72.946,406.454,73.143,406.38,73.612,406.38z"/>
	<path d="M105.074,407.933c1.751,1.26,3.033,3.551,3.033,6.092c0,3.92-2.564,6.805-5.721,7.914
		c-1.332,0.469-2.614,0.568-3.871,0.568c-1.431,0-3.403-0.221-4.686-0.221c-0.839,0-1.528,0.023-1.948,0.023
		c-0.444,0-0.616-0.123-0.616-0.271c0-0.172,0.197-0.246,0.567-0.295c1.258-0.248,1.651-0.42,1.677-1.752
		c0.049-1.578,0.049-3.402,0.049-5.721c0-3.205-0.074-4.834-0.123-5.77c-0.049-0.986-0.271-1.258-1.258-1.48
		c-0.32-0.074-0.566-0.172-0.566-0.32c0-0.172,0.197-0.271,0.591-0.271h1.652c1.282,0,3.132-0.197,5.031-0.197
		C101.128,406.231,103.25,406.651,105.074,407.933z M96.221,407.12c-0.147,0.098-0.32,0.221-0.37,0.961
		c-0.024,0.568-0.073,1.406-0.073,3.799v3.082c0,2.391,0.123,4.34,0.271,5.152c0.123,0.543,0.222,0.912,0.69,1.184
		c0.937,0.52,1.677,0.691,2.367,0.691c0.888,0,2.047-0.246,2.935-0.74c2.317-1.135,3.427-3.697,3.427-6.879
		c0-1.16-0.518-3.6-1.947-5.254c-1.356-1.504-2.935-2.342-5.129-2.342C97.159,406.774,96.394,407.021,96.221,407.12z"/>
	<path d="M110.375,406.38c0.615,0,1.774,0.074,2.761,0.074c0.296,0,2.86,0,3.156,0c2.664,0,3.453-0.174,4.242-0.297
		c0.098,0,0.271,0.223,0.296,0.371c0,0.123,0.222,1.898,0.222,2.539c0,0.223-0.173,0.443-0.296,0.443
		c-0.074,0-0.222-0.146-0.444-0.838c-0.271-0.961-0.739-1.307-1.849-1.406c-0.567-0.049-1.751-0.072-3.872-0.072
		c-0.147,0-0.246,0.195-0.296,0.418c-0.074,0.445-0.099,3.922-0.099,5.623c0,0.197,0.099,0.369,0.197,0.369h1.431
		c2.17,0,2.589-0.197,2.935-1.455c0.073-0.246,0.222-0.518,0.345-0.518c0.222,0,0.271,0.223,0.246,0.568
		c-0.024,0.566-0.049,1.207-0.049,1.824c0,0.689,0.049,1.602,0.099,2.145c0,0.346-0.123,0.494-0.247,0.494
		c-0.147,0-0.271-0.172-0.394-0.568c-0.223-0.863-0.444-1.404-1.381-1.479c-0.493-0.049-1.825-0.123-2.787-0.123
		c-0.32,0-0.395,0.221-0.395,0.369v4.586c0,0.84,0.099,1.135,0.296,1.357c0.567,0.518,0.543,0.615,2.466,0.615
		c3.23,0,3.601-0.049,4.267-0.961c0.172-0.246,0.468-0.617,0.739-1.209c0.222-0.418,0.37-0.541,0.518-0.541
		c0.124,0,0.197,0.295,0.197,0.443c0,0.246-0.715,2.564-0.789,2.785c-0.099,0.297-0.345,0.494-0.591,0.494
		c-0.839-0.074-4.144-0.172-8.532-0.172c-1.159,0-2.392,0.197-3.009,0.197c-0.37,0-0.567-0.1-0.567-0.271
		c0-0.123,0.148-0.223,0.592-0.32c1.431-0.297,1.899-0.568,2.071-2.121c0.1-1.012,0.124-2.441,0.124-5.869
		c0-3.379-0.024-4.389-0.074-5.227c-0.074-1.357-0.592-1.504-1.628-1.727c-0.443-0.1-0.567-0.197-0.567-0.32
		C109.708,406.454,109.906,406.38,110.375,406.38z"/>
	<path d="M136.979,414.171c-0.024,0-0.099,0.1,0,0.273c0.789,1.453,2.466,4.389,3.921,5.967c0.765,0.863,1.307,1.406,2.416,1.527
		c0.223,0.025,0.37,0.1,0.37,0.248c0,0.1-0.099,0.197-0.296,0.246c-0.222,0.049-0.616,0.074-1.011,0.074
		c-1.282,0-2.614-0.148-3.921-1.75c-0.616-0.766-1.825-2.492-3.107-4.734c-0.592-1.012-1.035-1.309-2.269-1.309
		c-0.173,0-0.395,0.051-0.469,0.074c-0.073,0.025-0.147,0.197-0.147,0.297c0,2.193,0,4.045,0.074,5.08
		c0.099,0.936,0.32,1.281,1.43,1.578c0.395,0.098,0.518,0.246,0.518,0.369c0,0.1-0.246,0.223-0.591,0.223
		c-0.494,0-1.801-0.074-2.614-0.074c-0.962,0-2.12,0.074-2.417,0.074c-0.395,0-0.641-0.1-0.641-0.248s0.197-0.27,0.542-0.344
		c1.135-0.223,1.381-0.469,1.431-1.258c0.049-0.814,0.123-2.416,0.123-6.166c0-5.055,0-5.547-0.024-6.09
		c-0.074-0.691-0.345-0.986-1.431-1.232c-0.443-0.1-0.592-0.174-0.592-0.346c0-0.123,0.222-0.223,0.592-0.223
		c0.642,0,1.11,0.025,1.579,0.025c0.616,0,2.539-0.123,3.723-0.123c1.677,0,2.91,0.172,3.945,0.863
		c1.209,0.789,1.751,2.145,1.751,3.229C139.864,412.521,138.458,413.63,136.979,414.171z M133.97,406.946
		c-0.369,0-0.665,0.025-0.986,0.148c-0.172,0.051-0.296,0.369-0.345,0.568c-0.173,1.33-0.197,4.117-0.173,6.064
		c0,0.174,0.197,0.346,0.37,0.395c0.271,0.074,0.665,0.049,1.282,0.049c0.567,0,1.208-0.123,1.651-0.295
		c1.085-0.492,1.751-1.43,1.751-3.23C137.521,408.353,135.87,406.946,133.97,406.946z"/>
	<path d="M152.019,406.554c0.05,0.393,0.173,0.689,0.42,1.379c1.405,4.168,3.057,8.434,4.413,11.813
		c0.69,1.652,1.185,1.775,2.171,2.021c0.345,0.074,0.493,0.223,0.493,0.346s-0.173,0.271-0.617,0.271
		c-0.369,0-1.898-0.123-2.909-0.123c-1.036,0-1.924,0.049-2.516,0.049c-0.345,0-0.543-0.123-0.543-0.271s0.173-0.221,0.519-0.32
		c1.085-0.32,1.085-0.766,1.011-1.307c-0.147-0.764-1.134-3.551-1.331-4.02c-0.099-0.197-0.296-0.346-0.543-0.346
		c-0.962-0.023-3.847-0.023-4.29,0.025c-0.124,0-0.271,0.172-0.346,0.369c-0.247,0.617-1.184,3.6-1.184,4.193
		c0,0.664,0.222,0.936,1.356,1.184c0.369,0.049,0.493,0.221,0.493,0.344c0.024,0.148-0.271,0.223-0.592,0.223
		c-0.765,0-0.938-0.123-2.071-0.123c-0.715,0-1.356,0.123-1.998,0.123c-0.345,0-0.666-0.049-0.666-0.223
		c0-0.172,0.124-0.246,0.469-0.32c1.159-0.246,1.529-0.889,1.998-2.047c1.504-3.625,3.921-10.775,4.364-12.107
		c0.099-0.197,0.173-0.566,0.173-0.715c0-0.123,0-0.123,0-0.295c0-0.148,0.197-0.371,0.296-0.396
		c0.197-0.049,1.011-0.072,1.208-0.023C151.872,406.28,152.019,406.454,152.019,406.554z M152.562,414.665
		c-0.666-1.973-1.431-4.094-1.948-5.523c-0.05-0.123-0.197-0.197-0.246-0.074c-0.173,0.42-1.652,4.908-1.85,5.646
		c-0.025,0.074,0,0.174,0.123,0.199c0.469,0.023,3.551,0.023,3.798-0.025C152.513,414.862,152.586,414.765,152.562,414.665z"/>
	<path d="M173.693,407.933c1.751,1.26,3.033,3.551,3.033,6.092c0,3.92-2.564,6.805-5.721,7.914
		c-1.332,0.469-2.614,0.568-3.872,0.568c-1.43,0-3.402-0.221-4.685-0.221c-0.839,0-1.529,0.023-1.948,0.023
		c-0.444,0-0.616-0.123-0.616-0.271c0-0.172,0.197-0.246,0.567-0.295c1.257-0.248,1.651-0.42,1.677-1.752
		c0.049-1.578,0.049-3.402,0.049-5.721c0-3.205-0.074-4.834-0.123-5.77c-0.05-0.986-0.271-1.258-1.258-1.48
		c-0.32-0.074-0.566-0.172-0.566-0.32c0-0.172,0.196-0.271,0.591-0.271h1.652c1.282,0,3.132-0.197,5.03-0.197
		C169.748,406.231,171.869,406.651,173.693,407.933z M164.84,407.12c-0.147,0.098-0.32,0.221-0.37,0.961
		c-0.024,0.568-0.073,1.406-0.073,3.799v3.082c0,2.391,0.123,4.34,0.271,5.152c0.122,0.543,0.222,0.912,0.689,1.184
		c0.938,0.52,1.678,0.691,2.368,0.691c0.888,0,2.046-0.246,2.935-0.74c2.317-1.135,3.427-3.697,3.427-6.879
		c0-1.16-0.518-3.6-1.948-5.254c-1.356-1.504-2.935-2.342-5.128-2.342C165.778,406.774,165.013,407.021,164.84,407.12z"/>
	<path d="M180.423,409.339c-0.05-1.652,0-2.096-1.332-2.367c-0.369-0.049-0.566-0.197-0.566-0.32c0-0.174,0.271-0.248,0.715-0.248
		c0.616,0,1.528,0.051,2.146,0.051c1.011,0,1.75-0.051,2.736-0.051c0.271,0,0.518,0.074,0.518,0.223s-0.147,0.246-0.493,0.32
		c-1.06,0.223-1.208,0.346-1.331,1.48c-0.123,1.084-0.197,2.367-0.197,5.301c0,3.428,0.123,5.303,0.197,6.363
		c0.074,1.135,0.469,1.281,1.554,1.627c0.419,0.123,0.469,0.246,0.469,0.395c0,0.123-0.173,0.223-0.519,0.223
		c-0.566,0-1.726-0.074-2.885-0.074c-0.74,0-1.751,0.074-2.516,0.074c-0.345,0-0.518-0.1-0.518-0.248
		c0-0.197,0.222-0.295,0.69-0.418c0.986-0.248,1.209-0.469,1.258-1.48c0.074-0.912,0.123-2.49,0.123-6.213
		C180.472,412.249,180.472,410.202,180.423,409.339z"/>
	<path d="M203.454,414.222c0,3.551-1.727,5.549-3.478,6.879c-1.43,1.086-3.378,1.652-4.636,1.652c-4.809,0-8.754-3.551-8.754-8.531
		c0-3.477,1.898-5.646,3.354-6.684c1.085-0.789,2.836-1.527,4.933-1.527C199.705,406.011,203.454,409.61,203.454,414.222z
		 M190.852,408.132c-0.689,0.715-1.775,2.316-1.775,5.473c0,2.293,0.889,4.734,2.368,6.387c1.109,1.234,2.515,2.072,4.191,2.072
		c1.308,0,2.516-0.691,3.354-1.529c1.308-1.283,1.924-3.674,1.924-5.77c0-3.453-2.244-8.139-6.757-8.139
		C192.826,406.626,191.568,407.415,190.852,408.132z"/>
	<path d="M218.764,407.933c1.751,1.26,3.033,3.551,3.033,6.092c0,3.92-2.564,6.805-5.721,7.914
		c-1.332,0.469-2.614,0.568-3.872,0.568c-1.43,0-3.402-0.221-4.685-0.221c-0.839,0-1.529,0.023-1.948,0.023
		c-0.444,0-0.616-0.123-0.616-0.271c0-0.172,0.197-0.246,0.567-0.295c1.257-0.248,1.651-0.42,1.677-1.752
		c0.049-1.578,0.049-3.402,0.049-5.721c0-3.205-0.074-4.834-0.123-5.77c-0.05-0.986-0.271-1.258-1.258-1.48
		c-0.32-0.074-0.566-0.172-0.566-0.32c0-0.172,0.196-0.271,0.591-0.271h1.652c1.282,0,3.132-0.197,5.031-0.197
		C214.819,406.231,216.94,406.651,218.764,407.933z M209.912,407.12c-0.147,0.098-0.32,0.221-0.37,0.961
		c-0.024,0.568-0.073,1.406-0.073,3.799v3.082c0,2.391,0.123,4.34,0.271,5.152c0.122,0.543,0.222,0.912,0.689,1.184
		c0.938,0.52,1.678,0.691,2.368,0.691c0.888,0,2.046-0.246,2.935-0.74c2.317-1.135,3.427-3.697,3.427-6.879
		c0-1.16-0.518-3.6-1.948-5.254c-1.356-1.504-2.935-2.342-5.129-2.342C210.849,406.774,210.084,407.021,209.912,407.12z"/>
	<path d="M225.495,409.339c-0.049-1.652,0-2.096-1.331-2.367c-0.37-0.049-0.567-0.197-0.567-0.32c0-0.174,0.271-0.248,0.715-0.248
		c0.616,0,1.529,0.051,2.146,0.051c1.011,0,1.751-0.051,2.737-0.051c0.271,0,0.518,0.074,0.518,0.223s-0.148,0.246-0.493,0.32
		c-1.061,0.223-1.208,0.346-1.331,1.48c-0.124,1.084-0.198,2.367-0.198,5.301c0,3.428,0.124,5.303,0.198,6.363
		c0.073,1.135,0.468,1.281,1.554,1.627c0.419,0.123,0.468,0.246,0.468,0.395c0,0.123-0.173,0.223-0.518,0.223
		c-0.567,0-1.727-0.074-2.885-0.074c-0.74,0-1.751,0.074-2.516,0.074c-0.346,0-0.518-0.1-0.518-0.248
		c0-0.197,0.222-0.295,0.69-0.418c0.986-0.248,1.208-0.469,1.257-1.48c0.074-0.912,0.124-2.49,0.124-6.213
		C225.544,412.249,225.544,410.202,225.495,409.339z"/>
	<path d="M239.968,406.454c0.74,0,1.652-0.148,1.825-0.148c0.074,0,0.246,0.172,0.246,0.32c0,0.715,0.074,1.604,0.074,2.342
		c0,0.322-0.147,0.543-0.246,0.543c-0.148,0-0.222-0.172-0.321-0.566c-0.295-1.332-0.838-1.578-2.145-1.701
		c-0.913-0.074-2.54-0.025-3.552-0.025c-0.172,0-0.296,0.271-0.32,0.469c-0.073,1.678-0.073,3.748-0.073,5.844
		c0,0.049,0.049,0.223,0.271,0.223c0.716,0,1.751-0.049,2.91-0.074c1.134-0.025,1.455-0.344,1.701-1.258
		c0.123-0.346,0.247-0.492,0.37-0.492c0.147,0,0.247,0.172,0.247,0.492c0,0.346-0.124,1.086-0.1,1.678
		c0,0.74,0.074,1.207,0.074,1.725c0,0.469-0.099,0.668-0.271,0.668c-0.148,0-0.271-0.223-0.346-0.494
		c-0.197-0.715-0.346-1.158-0.962-1.232c-0.764-0.074-1.677-0.125-3.674-0.125c-0.099,0-0.222,0.125-0.222,0.371
		c0,2.467,0,4.266,0.049,5.055c0.099,1.283,0.197,1.43,1.529,1.678c0.32,0.049,0.566,0.172,0.566,0.32s-0.271,0.271-0.542,0.271
		c-0.616,0-1.652-0.074-2.663-0.074c-0.938,0-2.22,0.074-2.762,0.074c-0.37,0-0.567-0.1-0.567-0.223c0-0.148,0.147-0.223,0.493-0.32
		c1.258-0.248,1.405-0.543,1.554-1.578c0.099-0.938,0.147-4.316,0.147-6.955c0-1.725-0.049-3.5-0.074-4.535
		c-0.049-1.283-0.197-1.652-1.504-1.801c-0.271-0.051-0.543-0.123-0.543-0.297c0-0.172,0.297-0.246,0.716-0.246
		c0.74,0,1.677,0.074,2.564,0.074H239.968z"/>
	<path d="M252.419,406.454c0.74,0,1.653-0.148,1.825-0.148c0.074,0,0.247,0.172,0.247,0.32c0,0.715,0.073,1.604,0.073,2.342
		c0,0.322-0.147,0.543-0.246,0.543c-0.148,0-0.222-0.172-0.321-0.566c-0.296-1.332-0.838-1.578-2.145-1.701
		c-0.912-0.074-2.54-0.025-3.551-0.025c-0.173,0-0.296,0.271-0.321,0.469c-0.073,1.678-0.073,3.748-0.073,5.844
		c0,0.049,0.049,0.223,0.271,0.223c0.715,0,1.751-0.049,2.909-0.074c1.135-0.025,1.455-0.344,1.702-1.258
		c0.123-0.346,0.246-0.492,0.369-0.492c0.148,0,0.247,0.172,0.247,0.492c0,0.346-0.124,1.086-0.099,1.678
		c0,0.74,0.073,1.207,0.073,1.725c0,0.469-0.099,0.668-0.271,0.668c-0.148,0-0.271-0.223-0.346-0.494
		c-0.197-0.715-0.346-1.158-0.962-1.232c-0.764-0.074-1.677-0.125-3.674-0.125c-0.099,0-0.222,0.125-0.222,0.371
		c0,2.467,0,4.266,0.049,5.055c0.099,1.283,0.197,1.43,1.529,1.678c0.32,0.049,0.566,0.172,0.566,0.32s-0.271,0.271-0.542,0.271
		c-0.616,0-1.652-0.074-2.663-0.074c-0.938,0-2.22,0.074-2.762,0.074c-0.37,0-0.567-0.1-0.567-0.223c0-0.148,0.148-0.223,0.493-0.32
		c1.258-0.248,1.405-0.543,1.554-1.578c0.099-0.938,0.147-4.316,0.147-6.955c0-1.725-0.049-3.5-0.074-4.535
		c-0.049-1.283-0.196-1.652-1.504-1.801c-0.271-0.051-0.542-0.123-0.542-0.297c0-0.172,0.296-0.246,0.715-0.246
		c0.74,0,1.677,0.074,2.564,0.074H252.419z"/>
	<path d="M256.708,406.354c0.765,0,1.775,0.1,2.664,0.1c1.208,0,1.997-0.051,2.539-0.051c0.296,0,0.493,0.051,0.493,0.199
		c0,0.123-0.147,0.246-0.468,0.32c-1.208,0.246-1.382,0.518-1.479,1.947c-0.074,0.863-0.074,3.922,0,6.264
		c0.049,2.811,0.493,3.971,1.651,5.08c0.938,0.887,2.516,1.158,3.329,1.158c2.244,0,3.945-0.738,4.513-3.945
		c0.296-1.553,0.346-4.143,0.346-6.51c0-0.912-0.025-1.85-0.148-2.564c-0.197-0.912-1.011-1.258-1.751-1.406
		c-0.296-0.049-0.592-0.123-0.592-0.295c0-0.197,0.247-0.248,0.666-0.248c0.839,0,1.604,0.051,2.22,0.051
		c0.962,0,1.06-0.051,2.021-0.051c0.247,0,0.592,0.051,0.592,0.223c0,0.148-0.147,0.223-0.493,0.297
		c-1.061,0.197-1.355,0.541-1.454,1.873c-0.124,1.924-0.247,4.932-0.297,6.018c-0.172,3.477-0.689,5.572-2.983,7.076
		c-0.813,0.518-2.22,0.814-3.329,0.814c-1.331,0-3.279-0.346-4.39-1.283c-1.43-1.158-2.096-2.514-2.12-6.238
		c-0.024-2.465-0.123-5.746-0.173-6.732c-0.024-0.787-0.32-1.305-1.405-1.527c-0.345-0.074-0.543-0.148-0.543-0.346
		C256.117,406.478,256.265,406.354,256.708,406.354z"/>
	<path d="M282.526,406.157c0.271,0.025,0.444,0.246,0.469,0.371c0.147,0.789,0.296,1.824,0.296,2.145
		c0,0.369-0.074,0.592-0.222,0.592c-0.173,0-0.296-0.246-0.396-0.492c-0.518-1.48-1.381-2.17-3.082-2.17
		c-1.628,0-2.663,1.232-2.663,2.834c0,1.752,1.232,2.566,3.255,3.873c2.146,1.381,3.699,2.959,3.699,4.906
		c0,1.504-0.765,2.787-1.874,3.551c-0.863,0.641-2.22,0.986-3.379,0.986c-1.431,0-2.737-0.295-3.798-0.666
		c-0.123-0.049-0.271-0.369-0.296-0.467c-0.098-0.74-0.369-2.023-0.369-2.418c0-0.221,0.049-0.469,0.246-0.469
		c0.271,0,0.469,0.518,0.938,1.48c0.592,1.232,1.898,1.824,3.329,1.824c1.824,0,2.983-1.924,2.983-3.033
		c0-1.678-1.159-2.613-2.935-3.748c-2.096-1.381-3.772-2.639-3.772-5.055c0-1.16,0.493-2.145,1.184-2.813
		c0.962-0.936,2.293-1.404,3.92-1.404C281.046,405.985,281.49,406.06,282.526,406.157z"/>
	<path d="M287.654,409.339c-0.05-1.652,0-2.096-1.332-2.367c-0.369-0.049-0.566-0.197-0.566-0.32c0-0.174,0.271-0.248,0.715-0.248
		c0.616,0,1.529,0.051,2.146,0.051c1.011,0,1.751-0.051,2.737-0.051c0.271,0,0.518,0.074,0.518,0.223s-0.147,0.246-0.493,0.32
		c-1.061,0.223-1.209,0.346-1.331,1.48c-0.124,1.084-0.198,2.367-0.198,5.301c0,3.428,0.124,5.303,0.198,6.363
		c0.073,1.135,0.468,1.281,1.553,1.627c0.42,0.123,0.469,0.246,0.469,0.395c0,0.123-0.172,0.223-0.518,0.223
		c-0.567,0-1.727-0.074-2.886-0.074c-0.739,0-1.75,0.074-2.515,0.074c-0.346,0-0.518-0.1-0.518-0.248
		c0-0.197,0.222-0.295,0.689-0.418c0.986-0.248,1.209-0.469,1.258-1.48c0.074-0.912,0.124-2.49,0.124-6.213
		C287.704,412.249,287.704,410.202,287.654,409.339z"/>
	<path d="M310.684,414.222c0,3.551-1.726,5.549-3.477,6.879c-1.431,1.086-3.379,1.652-4.636,1.652c-4.809,0-8.754-3.551-8.754-8.531
		c0-3.477,1.898-5.646,3.353-6.684c1.086-0.789,2.837-1.527,4.933-1.527C306.936,406.011,310.684,409.61,310.684,414.222z
		 M298.083,408.132c-0.691,0.715-1.775,2.316-1.775,5.473c0,2.293,0.888,4.734,2.366,6.387c1.11,1.234,2.516,2.072,4.193,2.072
		c1.306,0,2.515-0.691,3.353-1.529c1.308-1.283,1.924-3.674,1.924-5.77c0-3.453-2.243-8.139-6.757-8.139
		C300.056,406.626,298.798,407.415,298.083,408.132z"/>
	<path d="M312.607,406.38c0.467,0,2.317,0.074,3.254,0.074c0.197,0,0.469,0.271,0.592,0.395c0.32,0.297,0.69,0.863,1.529,1.824
		c1.43,1.701,6.633,7.793,8.014,9.42c0.099,0.123,0.197-0.049,0.223-0.148c0.073-1.307,0.073-5.893,0.023-7.521
		c-0.023-1.355,0-1.602-0.196-2.439c-0.123-0.469-0.567-0.789-1.701-1.037c-0.42-0.098-0.543-0.221-0.543-0.344
		c0-0.125,0.222-0.199,0.493-0.199c0.32,0,1.479,0.051,2.293,0.051c0.863,0,1.578-0.051,2.047-0.051
		c0.395,0,0.592,0.051,0.592,0.199c0,0.172-0.173,0.27-0.493,0.344c-1.159,0.271-1.356,0.84-1.455,1.9
		c-0.173,2.219-0.173,5.006-0.173,8.211c0,1.578,0.05,3.205,0.05,5.129c0,0.369-0.172,0.543-0.246,0.543
		c-0.247,0-0.444-0.174-0.593-0.322c-0.246-0.295-1.109-1.455-2.392-3.033c-2.688-3.303-5.647-6.805-8.235-9.912
		c-0.148-0.148-0.222-0.172-0.247,0.025c-0.05,0.469-0.074,1.258-0.074,3.428c-0.024,2.639,0.074,5.941,0.123,6.732
		c0.099,1.33,0.469,1.602,1.751,1.996c0.518,0.174,0.666,0.271,0.666,0.395c0,0.197-0.296,0.297-0.592,0.297
		c-0.566,0-1.627-0.074-2.466-0.074c-0.863,0-1.332,0.074-1.998,0.074c-0.32,0-0.641-0.049-0.641-0.248
		c0-0.197,0.222-0.32,0.592-0.393c1.085-0.297,1.356-0.568,1.479-1.949c0.099-1.109,0.271-6.633,0.271-10.381
		c0-1.135-0.124-1.406-0.642-1.875c-0.37-0.344-0.986-0.492-1.381-0.566c-0.271-0.051-0.493-0.148-0.493-0.297
		C312.039,406.503,312.138,406.38,312.607,406.38z"/>
	<path d="M335.291,416.269c0.173,0,0.247,0.197,0.247,0.271c0,0.172,0,0.592-0.123,0.838c-0.05,0.1-0.272,0.246-0.321,0.246
		c-0.543,0.1-4.143,0.445-4.611,0.445c-0.123,0-0.247-0.148-0.247-0.273c0-0.221,0.05-0.518,0.148-0.738
		c0.05-0.1,0.222-0.223,0.247-0.248C331.049,416.735,334.55,416.292,335.291,416.269z"/>
	<path d="M346.46,406.454c2.935,0,3.65-0.074,3.946-0.395c0.122-0.123,0.196-0.197,0.319-0.197c0.074,0,0.198,0.172,0.148,0.395
		c-0.223,0.863-0.346,1.898-0.395,2.885c-0.024,0.42-0.173,0.518-0.271,0.518c-0.148,0-0.222-0.223-0.345-0.691
		c-0.198-0.813-0.321-1.379-1.135-1.479c-0.567-0.049-2.564-0.148-4.513-0.148c-0.073,0-0.246,0.197-0.271,0.322
		c-0.049,1.133-0.049,2.811-0.049,4.314c0,2.516,0.025,5.105,0.025,7.078c0,2.096,0.172,2.316,1.873,2.688
		c0.346,0.074,0.519,0.172,0.519,0.344c0,0.148-0.173,0.248-0.642,0.248c-0.592,0-2.663-0.074-3.526-0.074
		c-1.011,0-2.047,0.098-2.613,0.098c-0.37,0-0.617-0.098-0.617-0.246c0-0.197,0.247-0.32,0.592-0.346
		c1.702-0.295,1.825-0.986,1.924-2.293c0.123-1.775,0.296-6.016,0.296-8.631c0-1.258-0.024-1.43-0.024-3.156
		c0-0.148-0.05-0.346-0.123-0.346c-0.913,0-3.478-0.023-4.168,0.074c-1.035,0.148-1.258,0.617-1.701,1.504
		c-0.222,0.42-0.346,0.568-0.494,0.568c-0.122,0-0.172-0.197-0.172-0.445c0.024-0.344,0.395-1.922,0.468-3.057
		c0-0.1,0.124-0.223,0.198-0.223c0.123,0,0.222,0.074,0.394,0.271c0.198,0.223,0.494,0.346,1.037,0.369
		c0.764,0.025,1.7,0.051,2.761,0.051H346.46z"/>
	<path d="M352.722,406.38c0.616,0,1.774,0.074,2.761,0.074c0.296,0,2.861,0,3.156,0c2.664,0,3.452-0.174,4.242-0.297
		c0.099,0,0.271,0.223,0.296,0.371c0,0.123,0.222,1.898,0.222,2.539c0,0.223-0.173,0.443-0.296,0.443
		c-0.074,0-0.222-0.146-0.443-0.838c-0.271-0.961-0.74-1.307-1.851-1.406c-0.566-0.049-1.75-0.072-3.87-0.072
		c-0.148,0-0.247,0.195-0.296,0.418c-0.074,0.445-0.1,3.922-0.1,5.623c0,0.197,0.1,0.369,0.197,0.369h1.431
		c2.17,0,2.589-0.197,2.934-1.455c0.075-0.246,0.224-0.518,0.346-0.518c0.223,0,0.271,0.223,0.247,0.568
		c-0.024,0.566-0.05,1.207-0.05,1.824c0,0.689,0.05,1.602,0.099,2.145c0,0.346-0.123,0.494-0.246,0.494
		c-0.148,0-0.271-0.172-0.396-0.568c-0.222-0.863-0.443-1.404-1.38-1.479c-0.494-0.049-1.825-0.123-2.786-0.123
		c-0.321,0-0.396,0.221-0.396,0.369v4.586c0,0.84,0.1,1.135,0.296,1.357c0.568,0.518,0.543,0.615,2.466,0.615
		c3.231,0,3.602-0.049,4.267-0.961c0.172-0.246,0.469-0.617,0.739-1.209c0.223-0.418,0.37-0.541,0.519-0.541
		c0.122,0,0.196,0.295,0.196,0.443c0,0.246-0.715,2.564-0.788,2.785c-0.1,0.297-0.345,0.494-0.592,0.494
		c-0.839-0.074-4.143-0.172-8.532-0.172c-1.159,0-2.392,0.197-3.009,0.197c-0.369,0-0.566-0.1-0.566-0.271
		c0-0.123,0.147-0.223,0.592-0.32c1.43-0.297,1.897-0.568,2.07-2.121c0.1-1.012,0.124-2.441,0.124-5.869
		c0-3.379-0.024-4.389-0.073-5.227c-0.074-1.357-0.593-1.504-1.629-1.727c-0.443-0.1-0.566-0.197-0.566-0.32
		C352.056,406.454,352.253,406.38,352.722,406.38z M361.105,402.261c0.224,0.074,0.741,0.494,0.716,0.74
		c-0.049,0.148-0.123,0.271-0.395,0.445c-0.813,0.566-2.293,1.43-3.255,1.922c-0.123,0.051-0.542,0.248-0.69,0.125
		c-0.099-0.074,0.074-0.322,0.271-0.494c0.69-0.666,1.849-1.875,2.761-2.588C360.786,402.212,360.982,402.237,361.105,402.261z"/>
	<path d="M366.381,406.403c0.542,0,1.504,0.051,2.416,0.051c1.061,0,2.195-0.051,2.935-0.051c0.395,0,0.519,0.15,0.519,0.248
		c0,0.148-0.124,0.246-0.519,0.32c-1.011,0.223-1.282,0.443-1.38,1.307c-0.05,0.74-0.124,1.898-0.124,7.053
		c0,2.564,0.074,3.725,0.124,4.512c0.074,1.012,0.296,1.357,1.282,1.432c1.849,0.123,3.18,0.146,4.068,0.023
		c0.839-0.098,1.454-0.689,2.071-1.924c0.147-0.344,0.346-0.713,0.518-0.713c0.124,0,0.198,0.146,0.198,0.469
		c0,0.393-0.642,2.391-0.79,2.908c-0.049,0.123-0.247,0.297-0.813,0.297c-2.49,0-6.017-0.074-7.743-0.074
		c-1.208,0-2.342,0.098-3.008,0.098c-0.395,0-0.567-0.123-0.567-0.295c0-0.1,0.124-0.246,0.518-0.32
		c1.332-0.271,1.751-0.494,1.85-1.678c0.049-1.109,0.098-3.625,0.098-6.066c0-3.377,0-4.463-0.023-5.35
		c-0.025-0.963-0.272-1.48-1.555-1.678c-0.319-0.049-0.591-0.148-0.591-0.369C365.864,406.478,366.061,406.403,366.381,406.403z"/>
	<path d="M380.042,406.38c0.616,0,1.774,0.074,2.761,0.074c0.296,0,2.861,0,3.156,0c2.664,0,3.453-0.174,4.242-0.297
		c0.099,0,0.271,0.223,0.296,0.371c0,0.123,0.222,1.898,0.222,2.539c0,0.223-0.172,0.443-0.296,0.443
		c-0.074,0-0.222-0.146-0.443-0.838c-0.271-0.961-0.74-1.307-1.85-1.406c-0.567-0.049-1.751-0.072-3.871-0.072
		c-0.148,0-0.247,0.195-0.296,0.418c-0.074,0.445-0.1,3.922-0.1,5.623c0,0.197,0.1,0.369,0.198,0.369h1.431
		c2.169,0,2.588-0.197,2.934-1.455c0.074-0.246,0.223-0.518,0.345-0.518c0.223,0,0.272,0.223,0.247,0.568
		c-0.024,0.566-0.049,1.207-0.049,1.824c0,0.689,0.049,1.602,0.098,2.145c0,0.346-0.123,0.494-0.245,0.494
		c-0.149,0-0.272-0.172-0.396-0.568c-0.222-0.863-0.443-1.404-1.381-1.479c-0.493-0.049-1.825-0.123-2.786-0.123
		c-0.321,0-0.396,0.221-0.396,0.369v4.586c0,0.84,0.1,1.135,0.296,1.357c0.568,0.518,0.543,0.615,2.467,0.615
		c3.23,0,3.601-0.049,4.266-0.961c0.173-0.246,0.469-0.617,0.739-1.209c0.223-0.418,0.37-0.541,0.519-0.541
		c0.123,0,0.197,0.295,0.197,0.443c0,0.246-0.716,2.564-0.789,2.785c-0.099,0.297-0.345,0.494-0.592,0.494
		c-0.839-0.074-4.143-0.172-8.532-0.172c-1.158,0-2.392,0.197-3.009,0.197c-0.369,0-0.566-0.1-0.566-0.271
		c0-0.123,0.147-0.223,0.592-0.32c1.43-0.297,1.898-0.568,2.07-2.121c0.1-1.012,0.124-2.441,0.124-5.869
		c0-3.379-0.024-4.389-0.073-5.227c-0.074-1.357-0.592-1.504-1.629-1.727c-0.443-0.1-0.566-0.197-0.566-0.32
		C379.375,406.454,379.573,406.38,380.042,406.38z M388.425,402.261c0.223,0.074,0.74,0.494,0.715,0.74
		c-0.049,0.148-0.123,0.271-0.394,0.445c-0.814,0.566-2.294,1.43-3.255,1.922c-0.124,0.051-0.543,0.248-0.691,0.125
		c-0.099-0.074,0.074-0.322,0.271-0.494c0.69-0.666,1.85-1.875,2.762-2.588C388.105,402.212,388.301,402.237,388.425,402.261z"/>
	<path d="M392.789,406.354c0.913,0,1.701,0.1,2.688,0.1c0.938,0,2.097-0.025,2.59-0.025c0.37,0,0.518,0.1,0.518,0.248
		c0,0.123-0.197,0.246-0.518,0.32c-0.912,0.172-1.406,0.295-1.012,1.479c0.543,1.604,1.727,4.586,3.896,9.84
		c0.024,0.072,0.197,0.146,0.247,0c0.863-1.775,2.564-6.412,3.402-8.705c0.518-1.43,0.469-2.121-0.024-2.416
		c-0.222-0.148-0.641-0.223-0.888-0.271c-0.197-0.051-0.443-0.148-0.443-0.297c0-0.172,0.147-0.246,0.469-0.246
		c0.788,0,1.479,0.074,2.145,0.074c0.813,0,1.825-0.074,2.22-0.074c0.296,0,0.469,0.123,0.469,0.246
		c0,0.148-0.222,0.246-0.469,0.297c-1.159,0.197-1.578,0.666-2.269,2.367c-0.493,1.158-2.343,5.572-3.354,8.188
		c-1.084,2.662-1.331,3.426-1.603,4.34c-0.246,0.764-0.443,0.961-0.616,0.961s-0.345-0.271-0.443-0.691
		c-0.1-0.369-0.568-1.824-1.012-2.982c-1.258-3.281-2.713-7.127-4.217-10.381c-0.592-1.334-0.888-1.555-1.825-1.801
		c-0.319-0.074-0.541-0.123-0.541-0.32C392.198,406.454,392.443,406.354,392.789,406.354z"/>
	<path d="M411.01,409.339c-0.05-1.652,0-2.096-1.331-2.367c-0.371-0.049-0.567-0.197-0.567-0.32c0-0.174,0.271-0.248,0.716-0.248
		c0.615,0,1.527,0.051,2.145,0.051c1.012,0,1.751-0.051,2.737-0.051c0.271,0,0.518,0.074,0.518,0.223s-0.147,0.246-0.493,0.32
		c-1.06,0.223-1.209,0.346-1.332,1.48c-0.123,1.084-0.196,2.367-0.196,5.301c0,3.428,0.123,5.303,0.196,6.363
		c0.074,1.135,0.469,1.281,1.555,1.627c0.419,0.123,0.468,0.246,0.468,0.395c0,0.123-0.172,0.223-0.518,0.223
		c-0.567,0-1.727-0.074-2.886-0.074c-0.739,0-1.75,0.074-2.515,0.074c-0.346,0-0.518-0.1-0.518-0.248
		c0-0.197,0.222-0.295,0.69-0.418c0.985-0.248,1.207-0.469,1.258-1.48c0.073-0.912,0.122-2.49,0.122-6.213
		C411.059,412.249,411.059,410.202,411.01,409.339z"/>
	<path d="M425.139,406.157c0.271,0.025,0.443,0.246,0.469,0.371c0.147,0.789,0.295,1.824,0.295,2.145
		c0,0.369-0.073,0.592-0.222,0.592c-0.173,0-0.296-0.246-0.395-0.492c-0.518-1.48-1.38-2.17-3.082-2.17
		c-1.627,0-2.663,1.232-2.663,2.834c0,1.752,1.232,2.566,3.255,3.873c2.146,1.381,3.698,2.959,3.698,4.906
		c0,1.504-0.765,2.787-1.874,3.551c-0.862,0.641-2.219,0.986-3.378,0.986c-1.43,0-2.737-0.295-3.798-0.666
		c-0.123-0.049-0.271-0.369-0.296-0.467c-0.098-0.74-0.369-2.023-0.369-2.418c0-0.221,0.05-0.469,0.246-0.469
		c0.271,0,0.469,0.518,0.938,1.48c0.592,1.232,1.898,1.824,3.328,1.824c1.825,0,2.984-1.924,2.984-3.033
		c0-1.678-1.159-2.613-2.935-3.748c-2.096-1.381-3.772-2.639-3.772-5.055c0-1.16,0.493-2.145,1.184-2.813
		c0.961-0.936,2.294-1.404,3.921-1.404C423.66,405.985,424.103,406.06,425.139,406.157z"/>
	<path d="M430.266,409.339c-0.049-1.652,0-2.096-1.331-2.367c-0.37-0.049-0.567-0.197-0.567-0.32c0-0.174,0.271-0.248,0.716-0.248
		c0.616,0,1.528,0.051,2.145,0.051c1.012,0,1.751-0.051,2.737-0.051c0.271,0,0.518,0.074,0.518,0.223s-0.147,0.246-0.492,0.32
		c-1.061,0.223-1.209,0.346-1.333,1.48c-0.123,1.084-0.196,2.367-0.196,5.301c0,3.428,0.123,5.303,0.196,6.363
		c0.074,1.135,0.469,1.281,1.555,1.627c0.419,0.123,0.469,0.246,0.469,0.395c0,0.123-0.173,0.223-0.519,0.223
		c-0.567,0-1.727-0.074-2.885-0.074c-0.739,0-1.751,0.074-2.516,0.074c-0.345,0-0.518-0.1-0.518-0.248
		c0-0.197,0.222-0.295,0.69-0.418c0.986-0.248,1.208-0.469,1.258-1.48c0.073-0.912,0.123-2.49,0.123-6.213
		C430.316,412.249,430.316,410.202,430.266,409.339z"/>
	<path d="M453.296,414.222c0,3.551-1.726,5.549-3.476,6.879c-1.431,1.086-3.38,1.652-4.637,1.652c-4.809,0-8.754-3.551-8.754-8.531
		c0-3.477,1.898-5.646,3.354-6.684c1.085-0.789,2.836-1.527,4.932-1.527C449.548,406.011,453.296,409.61,453.296,414.222z
		 M440.697,408.132c-0.691,0.715-1.776,2.316-1.776,5.473c0,2.293,0.888,4.734,2.367,6.387c1.11,1.234,2.515,2.072,4.192,2.072
		c1.307,0,2.516-0.691,3.354-1.529c1.307-1.283,1.923-3.674,1.923-5.77c0-3.453-2.243-8.139-6.756-8.139
		C442.669,406.626,441.411,407.415,440.697,408.132z"/>
	<path d="M455.218,406.38c0.469,0,2.318,0.074,3.256,0.074c0.196,0,0.468,0.271,0.592,0.395c0.32,0.297,0.69,0.863,1.529,1.824
		c1.43,1.701,6.632,7.793,8.013,9.42c0.1,0.123,0.198-0.049,0.223-0.148c0.073-1.307,0.073-5.893,0.024-7.521
		c-0.024-1.355,0-1.602-0.197-2.439c-0.123-0.469-0.567-0.789-1.701-1.037c-0.419-0.098-0.543-0.221-0.543-0.344
		c0-0.125,0.222-0.199,0.494-0.199c0.319,0,1.479,0.051,2.292,0.051c0.864,0,1.578-0.051,2.047-0.051
		c0.396,0,0.592,0.051,0.592,0.199c0,0.172-0.173,0.27-0.492,0.344c-1.16,0.271-1.356,0.84-1.456,1.9
		c-0.173,2.219-0.173,5.006-0.173,8.211c0,1.578,0.051,3.205,0.051,5.129c0,0.369-0.173,0.543-0.247,0.543
		c-0.247,0-0.444-0.174-0.592-0.322c-0.247-0.295-1.109-1.455-2.392-3.033c-2.688-3.303-5.647-6.805-8.236-9.912
		c-0.148-0.148-0.222-0.172-0.247,0.025c-0.049,0.469-0.074,1.258-0.074,3.428c-0.023,2.639,0.074,5.941,0.124,6.732
		c0.098,1.33,0.468,1.602,1.75,1.996c0.518,0.174,0.667,0.271,0.667,0.395c0,0.197-0.297,0.297-0.593,0.297
		c-0.566,0-1.627-0.074-2.466-0.074c-0.863,0-1.331,0.074-1.997,0.074c-0.32,0-0.642-0.049-0.642-0.248
		c0-0.197,0.222-0.32,0.592-0.393c1.086-0.297,1.356-0.568,1.48-1.949c0.098-1.109,0.271-6.633,0.271-10.381
		c0-1.135-0.123-1.406-0.642-1.875c-0.37-0.344-0.985-0.492-1.38-0.566c-0.272-0.051-0.494-0.148-0.494-0.297
		C454.651,406.503,454.75,406.38,455.218,406.38z"/>
	<path d="M486.311,406.454c0.739,0,1.651-0.148,1.824-0.148c0.074,0,0.247,0.172,0.247,0.32c0,0.715,0.074,1.604,0.074,2.342
		c0,0.322-0.148,0.543-0.247,0.543c-0.147,0-0.222-0.172-0.32-0.566c-0.296-1.332-0.839-1.578-2.146-1.701
		c-0.912-0.074-2.54-0.025-3.551-0.025c-0.173,0-0.296,0.271-0.32,0.469c-0.074,1.678-0.074,3.748-0.074,5.844
		c0,0.049,0.049,0.223,0.271,0.223c0.716,0,1.751-0.049,2.91-0.074c1.135-0.025,1.455-0.344,1.701-1.258
		c0.123-0.346,0.247-0.492,0.37-0.492c0.148,0,0.247,0.172,0.247,0.492c0,0.346-0.123,1.086-0.099,1.678
		c0,0.74,0.073,1.207,0.073,1.725c0,0.469-0.098,0.668-0.271,0.668c-0.148,0-0.271-0.223-0.346-0.494
		c-0.197-0.715-0.345-1.158-0.962-1.232c-0.765-0.074-1.677-0.125-3.674-0.125c-0.099,0-0.222,0.125-0.222,0.371
		c0,2.467,0,4.266,0.049,5.055c0.099,1.283,0.198,1.43,1.529,1.678c0.32,0.049,0.566,0.172,0.566,0.32s-0.271,0.271-0.542,0.271
		c-0.616,0-1.651-0.074-2.663-0.074c-0.938,0-2.22,0.074-2.762,0.074c-0.369,0-0.567-0.1-0.567-0.223
		c0-0.148,0.147-0.223,0.494-0.32c1.257-0.248,1.404-0.543,1.553-1.578c0.099-0.938,0.147-4.316,0.147-6.955
		c0-1.725-0.049-3.5-0.073-4.535c-0.049-1.283-0.197-1.652-1.505-1.801c-0.271-0.051-0.542-0.123-0.542-0.297
		c0-0.172,0.296-0.246,0.715-0.246c0.74,0,1.677,0.074,2.565,0.074H486.311z"/>
	<path d="M498.713,414.171c-0.024,0-0.099,0.1,0,0.273c0.789,1.453,2.466,4.389,3.92,5.967c0.765,0.863,1.308,1.406,2.417,1.527
		c0.222,0.025,0.37,0.1,0.37,0.248c0,0.1-0.099,0.197-0.296,0.246c-0.222,0.049-0.617,0.074-1.011,0.074
		c-1.282,0-2.614-0.148-3.921-1.75c-0.616-0.766-1.825-2.492-3.107-4.734c-0.592-1.012-1.035-1.309-2.269-1.309
		c-0.173,0-0.395,0.051-0.469,0.074c-0.074,0.025-0.147,0.197-0.147,0.297c0,2.193,0,4.045,0.073,5.08
		c0.1,0.936,0.321,1.281,1.431,1.578c0.395,0.098,0.518,0.246,0.518,0.369c0,0.1-0.246,0.223-0.592,0.223
		c-0.492,0-1.8-0.074-2.613-0.074c-0.962,0-2.121,0.074-2.417,0.074c-0.395,0-0.642-0.1-0.642-0.248s0.198-0.27,0.543-0.344
		c1.135-0.223,1.381-0.469,1.431-1.258c0.05-0.814,0.123-2.416,0.123-6.166c0-5.055,0-5.547-0.024-6.09
		c-0.074-0.691-0.345-0.986-1.431-1.232c-0.443-0.1-0.592-0.174-0.592-0.346c0-0.123,0.223-0.223,0.592-0.223
		c0.642,0,1.109,0.025,1.578,0.025c0.617,0,2.54-0.123,3.725-0.123c1.676,0,2.909,0.172,3.944,0.863
		c1.208,0.789,1.751,2.145,1.751,3.229C501.598,412.521,500.193,413.63,498.713,414.171z M495.705,406.946
		c-0.37,0-0.666,0.025-0.986,0.148c-0.172,0.051-0.296,0.369-0.345,0.568c-0.173,1.33-0.197,4.117-0.173,6.064
		c0,0.174,0.197,0.346,0.369,0.395c0.272,0.074,0.666,0.049,1.282,0.049c0.568,0,1.209-0.123,1.652-0.295
		c1.086-0.492,1.751-1.43,1.751-3.23C499.255,408.353,497.604,406.946,495.705,406.946z"/>
	<path d="M513.753,406.554c0.049,0.393,0.172,0.689,0.419,1.379c1.405,4.168,3.058,8.434,4.415,11.813
		c0.689,1.652,1.183,1.775,2.169,2.021c0.346,0.074,0.493,0.223,0.493,0.346s-0.173,0.271-0.616,0.271
		c-0.37,0-1.899-0.123-2.91-0.123c-1.035,0-1.924,0.049-2.516,0.049c-0.345,0-0.542-0.123-0.542-0.271s0.173-0.221,0.519-0.32
		c1.084-0.32,1.084-0.766,1.01-1.307c-0.147-0.764-1.134-3.551-1.331-4.02c-0.099-0.197-0.296-0.346-0.542-0.346
		c-0.962-0.023-3.848-0.023-4.291,0.025c-0.123,0-0.271,0.172-0.345,0.369c-0.247,0.617-1.185,3.6-1.185,4.193
		c0,0.664,0.222,0.936,1.356,1.184c0.37,0.049,0.493,0.221,0.493,0.344c0.024,0.148-0.271,0.223-0.591,0.223
		c-0.765,0-0.938-0.123-2.072-0.123c-0.715,0-1.356,0.123-1.997,0.123c-0.346,0-0.665-0.049-0.665-0.223
		c0-0.172,0.122-0.246,0.468-0.32c1.159-0.246,1.528-0.889,1.997-2.047c1.505-3.625,3.921-10.775,4.365-12.107
		c0.098-0.197,0.173-0.566,0.173-0.715c0-0.123,0-0.123,0-0.295c0-0.148,0.196-0.371,0.296-0.396
		c0.196-0.049,1.01-0.072,1.208-0.023C513.606,406.28,513.753,406.454,513.753,406.554z M514.295,414.665
		c-0.666-1.973-1.431-4.094-1.948-5.523c-0.049-0.123-0.196-0.197-0.246-0.074c-0.173,0.42-1.652,4.908-1.85,5.646
		c-0.024,0.074,0,0.174,0.123,0.199c0.469,0.023,3.551,0.023,3.798-0.025C514.247,414.862,514.321,414.765,514.295,414.665z"/>
	<path d="M522.038,406.38c0.468,0,2.318,0.074,3.255,0.074c0.197,0,0.469,0.271,0.593,0.395c0.319,0.297,0.689,0.863,1.528,1.824
		c1.43,1.701,6.633,7.793,8.014,9.42c0.1,0.123,0.197-0.049,0.223-0.148c0.073-1.307,0.073-5.893,0.024-7.521
		c-0.024-1.355,0-1.602-0.197-2.439c-0.123-0.469-0.567-0.789-1.701-1.037c-0.42-0.098-0.543-0.221-0.543-0.344
		c0-0.125,0.222-0.199,0.493-0.199c0.32,0,1.479,0.051,2.293,0.051c0.864,0,1.578-0.051,2.047-0.051
		c0.396,0,0.592,0.051,0.592,0.199c0,0.172-0.173,0.27-0.492,0.344c-1.16,0.271-1.356,0.84-1.456,1.9
		c-0.173,2.219-0.173,5.006-0.173,8.211c0,1.578,0.051,3.205,0.051,5.129c0,0.369-0.173,0.543-0.247,0.543
		c-0.247,0-0.444-0.174-0.592-0.322c-0.247-0.295-1.11-1.455-2.393-3.033c-2.688-3.303-5.647-6.805-8.235-9.912
		c-0.148-0.148-0.222-0.172-0.247,0.025c-0.049,0.469-0.074,1.258-0.074,3.428c-0.024,2.639,0.074,5.941,0.123,6.732
		c0.099,1.33,0.469,1.602,1.751,1.996c0.518,0.174,0.666,0.271,0.666,0.395c0,0.197-0.296,0.297-0.592,0.297
		c-0.566,0-1.627-0.074-2.466-0.074c-0.863,0-1.331,0.074-1.998,0.074c-0.319,0-0.641-0.049-0.641-0.248
		c0-0.197,0.222-0.32,0.592-0.393c1.086-0.297,1.356-0.568,1.479-1.949c0.099-1.109,0.271-6.633,0.271-10.381
		c0-1.135-0.124-1.406-0.642-1.875c-0.37-0.344-0.986-0.492-1.38-0.566c-0.272-0.051-0.494-0.148-0.494-0.297
		C521.47,406.503,521.57,406.38,522.038,406.38z"/>
	<path d="M553.106,406.478c0.642,0.174,0.961,0.174,1.233,0.174c0.123,0.025,0.271,0.271,0.271,0.369
		c-0.049,0.838,0.074,2.195,0.124,2.564c0.024,0.443-0.099,0.643-0.247,0.643c-0.124,0-0.247-0.199-0.346-0.518
		c-0.319-1.061-0.765-1.555-1.454-2.072c-0.74-0.543-2.021-1.061-3.551-1.061c-4.021,0-6.215,2.91-6.215,6.904
		c0,1.85,0.346,3.205,0.863,4.291c1.455,3.057,4.118,4.291,6.14,4.291c1.948,0,3.502-0.643,4.39-2.441
		c0.271-0.543,0.37-0.789,0.567-0.789c0.148,0,0.197,0.346,0.172,0.518c-0.023,0.346-0.122,1.406-0.147,1.75
		c-0.024,0.248-0.37,0.568-0.666,0.691c-0.838,0.443-2.12,0.838-3.994,0.938c-0.271,0.344-0.543,0.715-0.69,0.912
		c-0.05,0.074,0.024,0.172,0.123,0.223c0.937,0.418,1.356,1.01,1.356,1.676c0,0.938-0.838,1.652-1.381,2.021
		c-0.739,0.494-1.086,0.592-1.504,0.592c-0.247,0-0.519-0.123-0.519-0.32c0-0.148,0.024-0.172,0.223-0.395
		c0.123-0.148,0.246-0.223,0.369-0.172c0.197,0.049,0.543,0.098,0.74,0.098c0.518,0,0.912-0.492,0.912-0.936
		c0-0.666-0.616-1.186-1.356-1.186c-0.123,0-0.247,0-0.369,0c-0.1,0-0.247-0.221-0.247-0.295s0.024-0.148,0.173-0.297
		c0.469-0.469,1.158-1.307,1.627-1.922c-2.613,0.049-4.932-0.666-6.583-2.047c-1.874-1.455-2.86-3.822-2.86-6.264
		c0-2.664,1.109-5.055,3.328-6.584c1.997-1.455,4.217-1.85,6.041-1.85C551.207,405.985,552.416,406.306,553.106,406.478z"/>
	<path d="M565.063,406.554c0.05,0.393,0.173,0.689,0.42,1.379c1.405,4.168,3.058,8.434,4.414,11.813
		c0.69,1.652,1.183,1.775,2.169,2.021c0.347,0.074,0.494,0.223,0.494,0.346s-0.173,0.271-0.616,0.271
		c-0.37,0-1.899-0.123-2.91-0.123c-1.036,0-1.924,0.049-2.516,0.049c-0.345,0-0.542-0.123-0.542-0.271s0.173-0.221,0.518-0.32
		c1.085-0.32,1.085-0.766,1.011-1.307c-0.147-0.764-1.134-3.551-1.331-4.02c-0.099-0.197-0.297-0.346-0.542-0.346
		c-0.962-0.023-3.848-0.023-4.291,0.025c-0.124,0-0.271,0.172-0.346,0.369c-0.246,0.617-1.184,3.6-1.184,4.193
		c0,0.664,0.222,0.936,1.356,1.184c0.37,0.049,0.492,0.221,0.492,0.344c0.025,0.148-0.271,0.223-0.591,0.223
		c-0.765,0-0.937-0.123-2.071-0.123c-0.716,0-1.356,0.123-1.998,0.123c-0.345,0-0.665-0.049-0.665-0.223
		c0-0.172,0.123-0.246,0.469-0.32c1.159-0.246,1.528-0.889,1.996-2.047c1.505-3.625,3.921-10.775,4.366-12.107
		c0.098-0.197,0.172-0.566,0.172-0.715c0-0.123,0-0.123,0-0.295c0-0.148,0.197-0.371,0.296-0.396
		c0.197-0.049,1.011-0.072,1.208-0.023C564.916,406.28,565.063,406.454,565.063,406.554z M565.606,414.665
		c-0.666-1.973-1.431-4.094-1.948-5.523c-0.049-0.123-0.196-0.197-0.247-0.074c-0.173,0.42-1.651,4.908-1.849,5.646
		c-0.024,0.074,0,0.174,0.123,0.199c0.469,0.023,3.551,0.023,3.798-0.025C565.557,414.862,565.631,414.765,565.606,414.665z"/>
	<path d="M575.171,409.339c-0.049-1.652,0-2.096-1.331-2.367c-0.37-0.049-0.567-0.197-0.567-0.32c0-0.174,0.271-0.248,0.716-0.248
		c0.616,0,1.527,0.051,2.145,0.051c1.012,0,1.751-0.051,2.737-0.051c0.271,0,0.518,0.074,0.518,0.223s-0.147,0.246-0.492,0.32
		c-1.061,0.223-1.209,0.346-1.333,1.48c-0.123,1.084-0.196,2.367-0.196,5.301c0,3.428,0.123,5.303,0.196,6.363
		c0.074,1.135,0.469,1.281,1.555,1.627c0.419,0.123,0.468,0.246,0.468,0.395c0,0.123-0.172,0.223-0.518,0.223
		c-0.567,0-1.727-0.074-2.885-0.074c-0.74,0-1.751,0.074-2.516,0.074c-0.345,0-0.518-0.1-0.518-0.248
		c0-0.197,0.222-0.295,0.69-0.418c0.986-0.248,1.208-0.469,1.258-1.48c0.073-0.912,0.122-2.49,0.122-6.213
		C575.22,412.249,575.22,410.202,575.171,409.339z"/>
	<path d="M589.302,406.157c0.271,0.025,0.443,0.246,0.468,0.371c0.147,0.789,0.295,1.824,0.295,2.145
		c0,0.369-0.073,0.592-0.222,0.592c-0.172,0-0.296-0.246-0.394-0.492c-0.519-1.48-1.381-2.17-3.083-2.17
		c-1.627,0-2.663,1.232-2.663,2.834c0,1.752,1.232,2.566,3.256,3.873c2.145,1.381,3.698,2.959,3.698,4.906
		c0,1.504-0.765,2.787-1.875,3.551c-0.862,0.641-2.219,0.986-3.378,0.986c-1.43,0-2.736-0.295-3.797-0.666
		c-0.124-0.049-0.271-0.369-0.296-0.467c-0.099-0.74-0.369-2.023-0.369-2.418c0-0.221,0.049-0.469,0.245-0.469
		c0.272,0,0.469,0.518,0.938,1.48c0.592,1.232,1.899,1.824,3.329,1.824c1.824,0,2.983-1.924,2.983-3.033
		c0-1.678-1.159-2.613-2.935-3.748c-2.096-1.381-3.772-2.639-3.772-5.055c0-1.16,0.493-2.145,1.184-2.813
		c0.962-0.936,2.294-1.404,3.921-1.404C587.822,405.985,588.265,406.06,589.302,406.157z"/>
	<path d="M592.999,406.38c0.616,0,1.775,0.074,2.763,0.074c0.295,0,2.86,0,3.156,0c2.662,0,3.451-0.174,4.24-0.297
		c0.099,0,0.271,0.223,0.297,0.371c0,0.123,0.222,1.898,0.222,2.539c0,0.223-0.173,0.443-0.296,0.443
		c-0.074,0-0.223-0.146-0.444-0.838c-0.271-0.961-0.74-1.307-1.85-1.406c-0.567-0.049-1.751-0.072-3.871-0.072
		c-0.148,0-0.246,0.195-0.296,0.418c-0.074,0.445-0.099,3.922-0.099,5.623c0,0.197,0.099,0.369,0.197,0.369h1.431
		c2.169,0,2.589-0.197,2.934-1.455c0.074-0.246,0.223-0.518,0.346-0.518c0.223,0,0.271,0.223,0.246,0.568
		c-0.023,0.566-0.049,1.207-0.049,1.824c0,0.689,0.049,1.602,0.099,2.145c0,0.346-0.124,0.494-0.246,0.494
		c-0.148,0-0.272-0.172-0.396-0.568c-0.222-0.863-0.443-1.404-1.381-1.479c-0.493-0.049-1.824-0.123-2.786-0.123
		c-0.32,0-0.395,0.221-0.395,0.369v4.586c0,0.84,0.099,1.135,0.296,1.357c0.567,0.518,0.543,0.615,2.466,0.615
		c3.23,0,3.601-0.049,4.266-0.961c0.173-0.246,0.469-0.617,0.739-1.209c0.224-0.418,0.371-0.541,0.52-0.541
		c0.123,0,0.196,0.295,0.196,0.443c0,0.246-0.716,2.564-0.788,2.785c-0.1,0.297-0.346,0.494-0.593,0.494
		c-0.839-0.074-4.143-0.172-8.531-0.172c-1.159,0-2.393,0.197-3.009,0.197c-0.37,0-0.567-0.1-0.567-0.271
		c0-0.123,0.147-0.223,0.592-0.32c1.43-0.297,1.898-0.568,2.071-2.121c0.099-1.012,0.123-2.441,0.123-5.869
		c0-3.379-0.024-4.389-0.073-5.227c-0.074-1.357-0.592-1.504-1.628-1.727c-0.443-0.1-0.567-0.197-0.567-0.32
		C592.333,406.454,592.531,406.38,592.999,406.38z"/>
</g>
</svg>
